<?xml version="1.0" standalone="no"?>
<!DOCTYPE svg PUBLIC "-//W3C//DTD SVG 20010904//EN"
 "http://www.w3.org/TR/2001/REC-SVG-20010904/DTD/svg10.dtd">
<svg version="1.0" xmlns="http://www.w3.org/2000/svg"
 width="192.000000pt" height="192.000000pt" viewBox="0 0 192.000000 192.000000"
 preserveAspectRatio="xMidYMid meet">
<metadata>
Created by potrace 1.14, written by Peter Selinger 2001-2017
</metadata>
<g transform="translate(0.000000,192.000000) scale(0.100000,-0.100000)"
fill="#000000" stroke="none">
<path d="M1528 1690 c-69 -20 -157 -98 -269 -238 -76 -95 -120 -178 -151 -288
-18 -65 -22 -105 -23 -224 l0 -145 49 -73 c103 -157 205 -265 288 -308 68 -35
96 -31 148 17 44 39 127 86 169 94 42 8 143 59 157 79 28 40 14 122 -25 154
-47 37 -218 101 -311 116 -14 3 -27 5 -30 5 -3 1 31 19 75 40 90 44 169 114
178 157 3 18 -6 54 -25 103 -29 72 -31 84 -32 231 -3 169 -8 204 -39 237 -30
34 -114 56 -159 43z"/>
<path d="M893 1657 c0 -7 -3 -25 -7 -40 -4 -18 -2 -27 5 -27 7 0 10 3 7 6 -4
3 -2 19 2 35 5 16 5 31 1 33 -4 3 -8 0 -8 -7z"/>
<path d="M876 1565 c-3 -8 -1 -15 4 -15 6 0 10 7 10 15 0 8 -2 15 -4 15 -2 0
-6 -7 -10 -15z"/>
<path d="M878 1523 c-23 -91 40 -441 99 -556 24 -47 8 -42 -43 14 -70 75 -196
166 -293 212 -46 21 -89 40 -95 41 -6 1 -17 5 -23 9 -7 5 -13 6 -13 2 0 -3 -9
-1 -20 5 -14 7 -20 7 -20 0 0 -5 7 -11 15 -11 28 -3 48 -11 151 -60 111 -52
222 -137 328 -250 58 -62 82 -82 69 -59 -11 19 -25 49 -31 65 -6 17 -20 55
-32 85 -19 49 -45 147 -56 208 -2 12 -7 34 -10 50 -3 15 -8 79 -11 142 -3 63
-6 116 -8 118 -1 1 -4 -5 -7 -15z"/>
<path d="M437 1259 c7 -7 15 -10 18 -7 3 3 -2 9 -12 12 -14 6 -15 5 -6 -5z"/>
<path d="M40 1155 c5 -22 -1 -27 -17 -14 -14 12 -16 12 -12 0 7 -19 20 -23 39
-11 12 8 13 11 2 22 -8 7 -13 9 -12 3z"/>
<path d="M375 940 c-279 -56 -353 -98 -368 -211 -10 -81 27 -118 207 -205 103
-49 129 -66 191 -130 40 -41 80 -75 89 -75 9 -1 22 -2 29 -3 38 -6 154 48 230
107 38 30 44 26 27 -18 -9 -25 -13 -42 -27 -115 -4 -19 -7 -74 -7 -122 -1 -82
0 -88 28 -117 68 -71 123 -61 241 45 72 64 99 82 153 99 90 30 97 40 96 137
-1 90 -21 154 -92 288 -83 156 -99 173 -240 244 -170 86 -371 113 -557 76z"/>
</g>
</svg>
