<?xml version="1.0" encoding="UTF-8"?>
<svg xmlns="http://www.w3.org/2000/svg" xmlns:xlink="http://www.w3.org/1999/xlink" viewBox="0 0 40 40" width="40px" height="40px">
<g id="surface15206261">
<path style=" stroke:none;fill-rule:nonzero;fill:rgb(100%,58.823532%,58.823532%);fill-opacity:1;" d="M 20 3.332031 C 10.785156 3.332031 3.332031 10.785156 3.332031 20 C 3.332031 29.214844 10.785156 36.667969 20 36.667969 C 29.214844 36.667969 36.667969 29.214844 36.667969 20 C 36.667969 10.785156 29.214844 3.332031 20 3.332031 Z M 27.84375 25.488281 C 28.496094 26.140625 28.496094 27.191406 27.84375 27.84375 C 27.519531 28.171875 27.09375 28.332031 26.667969 28.332031 C 26.238281 28.332031 25.8125 28.171875 25.488281 27.84375 L 20 22.355469 L 14.511719 27.84375 C 14.1875 28.171875 13.761719 28.332031 13.332031 28.332031 C 12.90625 28.332031 12.480469 28.171875 12.15625 27.84375 C 11.503906 27.191406 11.503906 26.140625 12.15625 25.488281 L 17.644531 20 L 12.15625 14.511719 C 11.503906 13.859375 11.503906 12.808594 12.15625 12.15625 C 12.808594 11.503906 13.859375 11.503906 14.511719 12.15625 L 20 17.644531 L 25.488281 12.15625 C 26.140625 11.503906 27.191406 11.503906 27.84375 12.15625 C 28.496094 12.808594 28.496094 13.859375 27.84375 14.511719 L 22.355469 20 Z M 27.84375 25.488281 "/>
</g>
</svg>
