<?xml version="1.0" encoding="UTF-8"?>
<svg xmlns="http://www.w3.org/2000/svg" xmlns:xlink="http://www.w3.org/1999/xlink" viewBox="0 0 100 100" width="100px" height="100px">
<g id="surface29224400">
<path style=" stroke:none;fill-rule:nonzero;fill:rgb(18.039216%,80.000001%,44.313726%);fill-opacity:1;" d="M 50 8.332031 C 27.023438 8.332031 8.332031 27.023438 8.332031 50 C 8.332031 72.976562 27.023438 91.667969 50 91.667969 C 72.976562 91.667969 91.667969 72.976562 91.667969 50 C 91.667969 45.308594 90.851562 40.808594 89.414062 36.597656 L 82.667969 43.34375 C 83.105469 45.492188 83.332031 47.722656 83.332031 50 C 83.332031 68.378906 68.378906 83.332031 50 83.332031 C 31.621094 83.332031 16.667969 68.378906 16.667969 50 C 16.667969 31.621094 31.621094 16.667969 50 16.667969 C 56.804688 16.667969 63.132812 18.722656 68.417969 22.242188 L 74.382812 16.277344 C 67.515625 11.300781 59.105469 8.332031 50 8.332031 Z M 88.722656 13.722656 L 45.832031 56.609375 L 32.113281 42.886719 L 26.222656 48.777344 L 45.832031 68.390625 L 94.613281 19.613281 Z M 88.722656 13.722656 "/>
</g>
</svg>
