<?xml version="1.0" encoding="UTF-8"?>
<svg xmlns="http://www.w3.org/2000/svg" xmlns:xlink="http://www.w3.org/1999/xlink" viewBox="0 0 32 32" width="32px" height="32px">
<g id="surface56154844">
<path style=" stroke:none;fill-rule:nonzero;fill:rgb(47.450981%,33.333334%,23.921569%);fill-opacity:1;" d="M 16 32 C 7.164062 32 0 24.835938 0 16 C 0 7.164062 7.164062 0 16 0 C 24.835938 0 32 7.164062 32 16 C 32 24.835938 24.835938 32 16 32 Z M 16 32 "/>
<path style=" stroke:none;fill-rule:nonzero;fill:rgb(100%,100%,100%);fill-opacity:1;" d="M 12.265625 7.601562 C 9.691406 7.601562 7.601562 9.691406 7.601562 12.265625 L 7.601562 19.734375 C 7.601562 22.308594 9.691406 24.398438 12.265625 24.398438 L 19.734375 24.398438 C 22.308594 24.398438 24.398438 22.308594 24.398438 19.734375 L 24.398438 12.265625 C 24.398438 9.691406 22.308594 7.601562 19.734375 7.601562 Z M 21.601562 9.464844 C 22.113281 9.464844 22.535156 9.886719 22.535156 10.398438 C 22.535156 10.914062 22.113281 11.332031 21.601562 11.332031 C 21.085938 11.332031 20.667969 10.914062 20.667969 10.398438 C 20.667969 9.886719 21.085938 9.464844 21.601562 9.464844 Z M 16 11.332031 C 18.578125 11.332031 20.667969 13.421875 20.667969 16 C 20.667969 18.578125 18.578125 20.667969 16 20.667969 C 13.421875 20.667969 11.332031 18.578125 11.332031 16 C 11.332031 13.421875 13.421875 11.332031 16 11.332031 Z M 16 13.199219 C 14.453125 13.199219 13.199219 14.453125 13.199219 16 C 13.199219 17.546875 14.453125 18.800781 16 18.800781 C 17.546875 18.800781 18.800781 17.546875 18.800781 16 C 18.800781 14.453125 17.546875 13.199219 16 13.199219 Z M 16 13.199219 "/>
</g>
</svg>
