<?xml version="1.0" encoding="UTF-8"?>
<svg xmlns="http://www.w3.org/2000/svg" xmlns:xlink="http://www.w3.org/1999/xlink" viewBox="0 0 32 32" width="32px" height="32px">
<g id="surface55147690">
<path style=" stroke:none;fill-rule:nonzero;fill:rgb(47.450981%,33.333334%,23.921569%);fill-opacity:1;" d="M 16 1.28125 C 7.882812 1.28125 1.28125 7.882812 1.28125 16 C 1.28125 18.535156 1.933594 21.027344 3.175781 23.226562 L 1.304688 29.90625 C 1.242188 30.125 1.300781 30.363281 1.460938 30.527344 C 1.582031 30.652344 1.75 30.71875 1.921875 30.71875 C 1.972656 30.71875 2.023438 30.714844 2.074219 30.703125 L 9.046875 28.972656 C 11.175781 30.117188 13.574219 30.71875 16 30.71875 C 24.117188 30.71875 30.71875 24.117188 30.71875 16 C 30.71875 7.882812 24.117188 1.28125 16 1.28125 Z M 23.40625 21.195312 C 23.089844 22.066406 21.578125 22.863281 20.855469 22.96875 C 20.203125 23.0625 19.378906 23.105469 18.472656 22.820312 C 17.925781 22.648438 17.21875 22.417969 16.320312 22.035156 C 12.527344 20.417969 10.050781 16.648438 9.863281 16.398438 C 9.675781 16.152344 8.320312 14.375 8.320312 12.539062 C 8.320312 10.703125 9.296875 9.800781 9.644531 9.425781 C 9.988281 9.054688 10.398438 8.960938 10.652344 8.960938 C 10.902344 8.960938 11.15625 8.964844 11.375 8.972656 C 11.609375 8.984375 11.917969 8.886719 12.226562 9.613281 C 12.539062 10.363281 13.296875 12.199219 13.390625 12.386719 C 13.484375 12.570312 13.546875 12.789062 13.421875 13.039062 C 13.296875 13.289062 13.234375 13.445312 13.042969 13.660156 C 12.855469 13.878906 12.648438 14.148438 12.476562 14.316406 C 12.289062 14.503906 12.089844 14.703125 12.3125 15.078125 C 12.53125 15.453125 13.289062 16.671875 14.414062 17.664062 C 15.855469 18.933594 17.074219 19.328125 17.453125 19.515625 C 17.832031 19.703125 18.050781 19.671875 18.269531 19.421875 C 18.492188 19.171875 19.214844 18.332031 19.46875 17.957031 C 19.71875 17.585938 19.972656 17.648438 20.316406 17.773438 C 20.664062 17.894531 22.523438 18.796875 22.902344 18.984375 C 23.277344 19.171875 23.53125 19.265625 23.625 19.421875 C 23.71875 19.574219 23.71875 20.324219 23.40625 21.195312 Z M 23.40625 21.195312 "/>
</g>
</svg>
